HIERARCHY
ROOT Hips
{
	OFFSET 0.00000 0.00000 0.00000
	CHANNELS 6 Xposition Yposition Zposition Zrotation Yrotation Xrotation 
	JOINT LHipJoint
	{
		OFFSET 0 0 0
		CHANNELS 3 Zrotation Yrotation Xrotation
		JOINT LeftUpLeg
		{
			OFFSET 2.36090 -1.39315 1.24752
			CHANNELS 3 Zrotation Yrotation Xrotation
			JOINT LeftLeg
			{
				OFFSET 2.06810 -5.68207 0.00000
				CHANNELS 3 Zrotation Yrotation Xrotation
				JOINT LeftFoot
				{
					OFFSET 2.46631 -6.77613 0.00000
					CHANNELS 3 Zrotation Yrotation Xrotation
					JOINT LeftToeBase
					{
						OFFSET 0.26031 -0.71520 1.99545
						CHANNELS 3 Zrotation Yrotation Xrotation
						End Site
						{
							OFFSET 0.00000 -0.00000 1.05957
						}
					}
				}
			}
		}
	}
	JOINT RHipJoint
	{
		OFFSET 0 0 0
		CHANNELS 3 Zrotation Yrotation Xrotation
		JOINT RightUpLeg
		{
			OFFSET -2.25243 -1.39315 1.24752
			CHANNELS 3 Zrotation Yrotation Xrotation
			JOINT RightLeg
			{
				OFFSET -2.17343 -5.97145 0.00000
				CHANNELS 3 Zrotation Yrotation Xrotation
				JOINT RightFoot
				{
					OFFSET -2.52372 -6.93386 0.00000
					CHANNELS 3 Zrotation Yrotation Xrotation
					JOINT RightToeBase
					{
						OFFSET -0.22538 -0.61923 2.11447
						CHANNELS 3 Zrotation Yrotation Xrotation
						End Site
						{
							OFFSET -0.00000 -0.00000 1.10506
						}
					}
				}
			}
		}
	}
	JOINT LowerBack
	{
		OFFSET 0 0 0
		CHANNELS 3 Zrotation Yrotation Xrotation
		JOINT Spine
		{
			OFFSET 0.01594 2.13103 0.08007
			CHANNELS 3 Zrotation Yrotation Xrotation
			JOINT Spine1
			{
				OFFSET 0.01393 2.09723 0.18338
				CHANNELS 3 Zrotation Yrotation Xrotation
				JOINT Neck
				{
					OFFSET 0 0 0
					CHANNELS 3 Zrotation Yrotation Xrotation
					JOINT Neck1
					{
						OFFSET 0.05351 1.38915 0.32494
						CHANNELS 3 Zrotation Yrotation Xrotation
						JOINT Head
						{
							OFFSET 0.00711 1.45992 -0.21666
							CHANNELS 3 Zrotation Yrotation Xrotation
							End Site
							{
								OFFSET -0.00433 1.47702 -0.11056
							}
						}
					}
				}
				JOINT LeftShoulder
				{
					OFFSET 0 0 0
					CHANNELS 3 Zrotation Yrotation Xrotation
					JOINT LeftArm
					{
						OFFSET 2.87198 0.92249 0.11132
						CHANNELS 3 Zrotation Yrotation Xrotation
						JOINT LeftForeArm
						{
							OFFSET 5.52731 -0.00000 0.00000
							CHANNELS 3 Zrotation Yrotation Xrotation
							JOINT LeftHand
							{
								OFFSET 3.11059 -0.00000 0.00000
								CHANNELS 3 Zrotation Yrotation Xrotation
								JOINT LeftFingerBase
								{
									OFFSET 0 0 0
									CHANNELS 3 Zrotation Yrotation Xrotation
									JOINT LeftHandIndex1
									{
										OFFSET 0.41963 -0.00000 0.00000
										CHANNELS 3 Zrotation Yrotation Xrotation
										End Site
										{
											OFFSET 0.33831 -0.00000 0.00000
										}
									}
								}
								JOINT LThumb
								{
									OFFSET 0 0 0
									CHANNELS 3 Zrotation Yrotation Xrotation
									End Site
									{
										OFFSET 0.34348 -0.00000 0.34348
									}
								}
							}
						}
					}
				}
				JOINT RightShoulder
				{
					OFFSET 0 0 0
					CHANNELS 3 Zrotation Yrotation Xrotation
					JOINT RightArm
					{
						OFFSET -2.94710 0.68072 0.32187
						CHANNELS 3 Zrotation Yrotation Xrotation
						JOINT RightForeArm
						{
							OFFSET -5.25396 -0.00000 -0.00000
							CHANNELS 3 Zrotation Yrotation Xrotation
							JOINT RightHand
							{
								OFFSET -3.10567 -0.00000 0.00000
								CHANNELS 3 Zrotation Yrotation Xrotation
								JOINT RightFingerBase
								{
									OFFSET 0 0 0
									CHANNELS 3 Zrotation Yrotation Xrotation
									JOINT RightHandIndex1
									{
										OFFSET -0.49868 -0.00000 0.00000
										CHANNELS 3 Zrotation Yrotation Xrotation
										End Site
										{
											OFFSET -0.40204 -0.00000 0.00000
										}
									}
								}
								JOINT RThumb
								{
									OFFSET 0 0 0
									CHANNELS 3 Zrotation Yrotation Xrotation
									End Site
									{
										OFFSET -0.40818 -0.00000 0.40818
									}
								}
							}
						}
					}
				}
			}
		}
	}
}
MOTION
Frames: 9
Frame Time: .0083333
7.1998 20.1943 5.7733 -177.4330 61.5986 -157.9360 0.0000 0.0000 0.0000 -18.6361 -8.0353 -42.2056 6.8496 15.2039 48.3032 -0.4999 14.2264 -12.7014 2.8665 -10.4758 -30.5317 0.0000 0.0000 0.0000 23.5034 23.0407 -30.1268 -4.0793 -12.2652 36.6768 -0.3002 -12.9607 -21.7305 -0.0001 -0.0558 0.1534 6.1760 1.7917 -13.6093 1.1185 2.0286 -6.0214 -2.0066 1.1232 1.4157 -3.4946 -5.6058 -20.1317 5.9595 -8.1855 30.4464 1.5953 -2.7746 14.2189 0.0000 0.0000 0.0000 -84.1504 13.9100 18.7453 15.1767 -24.3917 -3.2986 -0.0000 0.0000 -37.8231 19.5223 1.1388 0.4037 -7.1250 0.0000 -0.0000 -5.6187 31.1591 1.9090 0.0000 0.0000 0.0000 78.7050 -6.1548 16.2715 -16.8133 26.6110 -4.0033 0.0000 -0.0000 -8.4876 -23.9181 -18.5509 8.0316 7.1250 -0.0000 -0.0000 4.2167 -50.0916 -0.5301
7.1999 20.1996 5.7518 -177.4450 62.4034 -157.9670 0.0000 0.0000 0.0000 -18.2707 -8.7636 -42.2560 6.9551 15.2939 48.7042 -0.2163 11.6575 -13.0798 2.7617 -10.2990 -29.9505 0.0000 0.0000 0.0000 23.3237 23.2619 -30.0286 -4.0694 -12.2521 36.6298 -0.3221 -12.5715 -21.4919 -0.0000 0.0398 -0.1092 6.3314 1.7600 -13.4741 1.1830 1.9630 -5.9528 -2.0388 1.0853 1.4117 -3.4600 -5.6246 -20.1246 6.0500 -8.2614 30.5266 1.6134 -2.7872 14.2617 0.0000 0.0000 0.0000 -84.1213 14.0240 19.1753 15.0477 -24.2124 -3.2455 -0.0000 0.0000 -37.2204 18.9224 0.9520 0.3264 -7.1250 0.0000 -0.0000 -6.0818 30.9532 2.0980 0.0000 0.0000 0.0000 78.5626 -6.1410 15.9550 -16.8919 26.7151 -4.0386 0.0000 -0.0000 -8.8440 -23.7798 -18.5192 7.9671 7.1250 -0.0000 -0.0000 4.3451 -50.0349 -0.5402
7.2006 20.2052 5.7295 -177.5080 63.2221 -158.0380 0.0000 0.0000 0.0000 -17.9117 -9.5715 -42.2489 7.0253 15.3531 48.9698 0.0274 9.0843 -13.4276 2.6291 -10.0690 -29.2004 0.0000 0.0000 0.0000 23.1081 23.5080 -29.9429 -4.0633 -12.2442 36.6014 -0.3420 -12.1990 -21.2622 -0.0005 0.1448 -0.3979 6.4645 1.7372 -13.3426 1.2157 1.9115 -5.8802 -2.0894 1.0544 1.4155 -3.3759 -5.6518 -20.1315 6.1306 -8.3642 30.6024 1.6138 -2.8067 14.3044 -0.0000 -0.0000 0.0000 -84.0325 14.1173 19.6727 14.9137 -24.0258 -3.1907 -0.0000 0.0000 -36.7285 18.4515 0.7223 0.2410 -7.1250 0.0000 -0.0000 -6.4379 30.7056 2.2606 -0.0000 -0.0000 0.0000 78.4568 -6.1255 15.6614 -16.9740 26.8234 -4.0756 0.0000 -0.0000 -9.1933 -23.6812 -18.5801 7.9552 7.1250 -0.0000 -0.0000 4.4571 -50.0835 -0.5595
7.2020 20.2108 5.7066 -177.6230 64.0552 -158.1510 0.0000 0.0000 0.0000 -17.5598 -10.4502 -42.1807 7.0587 15.3811 49.0960 0.2229 6.6278 -13.7203 2.4801 -9.8016 -28.3365 0.0000 0.0000 0.0000 22.8597 23.7856 -29.8655 -4.0620 -12.2424 36.5950 -0.3596 -11.8514 -21.0454 -0.0017 0.2624 -0.7211 6.6237 1.7315 -13.2486 1.1824 1.8738 -5.7804 -2.2198 1.0301 1.4717 -3.2379 -5.6836 -20.1464 6.2480 -8.5052 30.6463 1.6121 -2.8315 14.3370 -0.0000 -0.0000 0.0000 -83.8281 14.1579 20.2343 14.7777 -23.8355 -3.1356 -0.0000 0.0000 -36.3610 18.1176 0.4763 0.1558 -7.1250 0.0000 -0.0000 -6.6832 30.4441 2.3899 -0.0000 -0.0000 0.0000 78.4511 -6.0580 15.3383 -17.0395 26.9098 -4.1052 0.0000 -0.0000 -9.4743 -23.5956 -18.6660 7.9582 7.1250 -0.0000 -0.0000 4.5626 -50.1608 -0.5815
7.2043 20.2161 5.6832 -177.7930 64.8992 -158.3100 0.0000 0.0000 0.0000 -17.2163 -11.4006 -42.0512 7.0547 15.3777 49.0807 0.3698 4.3787 -13.9411 2.3309 -9.5238 -27.4479 0.0000 0.0000 0.0000 22.5787 24.0948 -29.7990 -4.0661 -12.2478 36.6144 -0.3756 -11.5263 -20.8456 -0.0037 0.3914 -1.0756 6.7916 1.7304 -13.1860 1.1068 1.8371 -5.6624 -2.3979 1.0066 1.5654 -3.0642 -5.7119 -20.1652 6.3820 -8.6590 30.6723 1.6083 -2.8557 14.3629 0.0000 -0.0000 0.0000 -83.5532 14.1656 20.8179 14.6420 -23.6450 -3.0809 -0.0000 0.0000 -36.1044 17.9250 0.2376 0.0768 -7.1250 0.0000 -0.0000 -6.8172 30.1927 2.4796 0.0000 -0.0000 0.0000 78.4965 -5.9606 15.0618 -17.0976 26.9863 -4.1315 0.0000 -0.0000 -9.7197 -23.6857 -18.8289 8.0583 7.1250 -0.0000 -0.0000 4.5146 -50.3490 -0.5962
7.2077 20.2210 5.6592 -178.0020 65.7572 -158.5000 0.0000 0.0000 0.0000 -16.8741 -12.4137 -41.8627 7.0138 15.3435 48.9266 0.4742 2.3912 -14.1002 2.1902 -9.2515 -26.5854 0.0000 0.0000 0.0000 22.2748 24.4355 -29.7419 -4.0748 -12.2593 36.6557 -0.3907 -11.2184 -20.6621 -0.0067 0.5295 -1.4549 6.9574 1.7230 -13.1516 1.0155 1.7893 -5.5337 -2.5921 0.9787 1.6848 -2.9142 -5.7335 -20.1675 6.5507 -8.8055 30.6792 1.6240 -2.8758 14.3799 -0.0000 -0.0000 0.0000 -83.2598 14.1618 21.3687 14.5115 -23.4612 -3.0288 -0.0000 0.0000 -35.9414 17.7312 0.1242 0.0397 -7.1250 0.0000 -0.0000 -6.9610 30.0726 2.5527 -0.0000 -0.0000 0.0000 78.5573 -5.8338 14.8256 -17.1367 27.0376 -4.1493 0.0000 -0.0000 -9.8806 -23.7714 -18.9457 8.1383 7.1250 -0.0000 -0.0000 4.4594 -50.4876 -0.6041
7.2118 20.2257 5.6347 -178.2510 66.6349 -158.7180 0.0000 0.0000 0.0000 -16.5346 -13.4832 -41.6229 6.9376 15.2791 48.6380 0.5444 0.6899 -14.2050 2.0634 -8.9970 -25.7859 0.0000 0.0000 0.0000 21.9466 24.8033 -29.7020 -4.0875 -12.2759 36.7152 -0.4059 -10.9150 -20.4911 -0.0107 0.6693 -1.8393 7.0919 1.6995 -13.1298 0.9368 1.7241 -5.4096 -2.7584 0.9433 1.8030 -2.8109 -5.7438 -20.1480 6.7324 -8.9224 30.6808 1.6588 -2.8879 14.3915 -0.0000 -0.0000 0.0000 -83.0008 14.1736 21.8418 14.3920 -23.2923 -2.9813 -0.0000 0.0000 -35.8372 17.5171 0.1300 0.0410 -7.1250 0.0000 -0.0000 -7.1295 30.0766 2.6147 -0.0000 -0.0000 0.0000 78.5827 -5.7031 14.6793 -17.1634 27.0726 -4.1614 0.0000 -0.0000 -9.9797 -23.8709 -19.0359 8.2131 7.1250 -0.0000 -0.0000 4.3836 -50.6004 -0.6060
7.2171 20.2301 5.6096 -178.5160 67.5363 -158.9440 0.0000 0.0000 0.0000 -16.1844 -14.6057 -41.3306 6.8288 15.1860 48.2239 0.5896 -0.7071 -14.2806 1.9579 -8.7778 -25.1026 0.0000 0.0000 0.0000 21.6093 25.1870 -29.6727 -4.1019 -12.2948 36.7830 -0.4222 -10.5999 -20.3255 -0.0157 0.8084 -2.2216 7.2030 1.6638 -13.1150 0.8731 1.6460 -5.2933 -2.8978 0.9025 1.9141 -2.7409 -5.7369 -20.1124 6.9143 -9.0023 30.6897 1.7069 -2.8884 14.4024 0.0000 -0.0000 0.0000 -82.7743 14.2110 22.2367 14.2899 -23.1477 -2.9411 -0.0000 0.0000 -35.7940 17.2306 0.2798 0.0868 -7.1250 0.0000 -0.0000 -7.3661 30.2294 2.6757 0.0000 -0.0000 0.0000 78.5811 -5.5719 14.5992 -17.1770 27.0906 -4.1676 0.0000 -0.0000 -10.0048 -23.9497 -19.0971 8.2684 7.1250 -0.0000 -0.0000 4.3208 -50.6788 -0.6056
7.2235 20.2344 5.5842 -178.7800 68.4618 -159.1640 0.0000 0.0000 0.0000 -15.8105 -15.7821 -40.9882 6.6908 15.0659 47.6948 0.6185 -1.8028 -14.3488 1.8716 -8.5933 -24.5311 0.0000 0.0000 0.0000 21.2722 25.5863 -29.6498 -4.1166 -12.3140 36.8519 -0.4418 -10.2597 -20.1749 -0.0201 0.9145 -2.5136 7.2659 1.6188 -13.0869 0.8438 1.5652 -5.1976 -2.9754 0.8608 1.9939 -2.6890 -5.7229 -20.0680 7.0558 -9.0525 30.7223 1.7478 -2.8836 14.4182 0.0000 -0.0000 0.0000 -82.6043 14.2946 22.6269 14.1962 -23.0146 -2.9044 -0.0000 0.0000 -35.8255 17.0163 0.3526 0.1079 -7.1250 0.0000 -0.0000 -7.5404 30.3024 2.7267 0.0000 -0.0000 0.0000 78.5149 -5.4745 14.5900 -17.1872 27.1039 -4.1723 0.0000 -0.0000 -10.0040 -24.1952 -19.1735 8.3945 7.1250 -0.0000 -0.0000 4.0962 -50.8021 -0.5865
